<svg width="60" height="89" viewBox="0 0 60 89" fill="none" xmlns="http://www.w3.org/2000/svg">
<path fill-rule="evenodd" clip-rule="evenodd" d="M53.632 48C49.8773 44.7573 44.9707 42.624 38.912 41.6C43.52 40.6613 47.4027 38.4853 50.56 35.072C53.8027 31.6587 55.424 27.392 55.424 22.272C55.424 14.7627 52.4373 9.17333 46.464 5.504C40.576 1.83467 32.0427 0 20.864 0H0C0 0 0 20.5174 0 33.664C1.45981 35.6919 10.7002 35.6919 12.16 33.664V9.6H22.144C29.1413 9.6 34.3467 10.5813 37.76 12.544C41.2587 14.5067 43.008 18.048 43.008 23.168C43.008 27.6907 41.344 31.1893 38.016 33.664C34.7733 36.1387 30.592 37.376 25.472 37.376C25.472 37.376 20.3989 37.376 15.2002 37.376C18.2512 39.8795 18.2512 44.2165 15.2002 46.72C16.2404 46.72 26.624 46.72 26.624 46.72C32.512 46.72 37.2907 48 40.96 50.56C44.6293 53.12 46.464 57.3013 46.464 63.104C46.464 69.0773 44.544 73.1307 40.704 75.264C36.9493 77.3973 31.488 78.464 24.32 78.464H12.16C12.16 78.464 12.16 61.4572 12.16 50.56C10.9598 48.6919 1.2002 48.6919 0 50.56C0 65.2562 0 88.192 0 88.192H24.32C47.616 88.192 59.264 79.8293 59.264 63.104C59.264 56.2773 57.3867 51.2427 53.632 48Z" fill="#E066EB"/>
</svg>
